<svg xmlns="http://www.w3.org/2000/svg" width="256" height="256" viewBox="0 0 100 100">
	<path fill="#fff" d="M22.21 51.73L22.21 51.73Q23.22 51.73 23.22 54.10L23.22 54.10Q23.22 57.70 19.65 60.84Q16.09 63.97 11.48 63.97L11.48 63.97Q8.53 63.97 5.79 62.53L5.79 62.53Q-0.04 59.36-0.04 51.51L-0.04 51.51Q-0.04 45.97 2.98 40.64L2.98 40.64Q7.16 33.37 14.97 29.12Q22.78 24.87 30.20 24.87L30.20 24.87Q35.60 24.87 39.06 27.25L39.06 27.25Q42.94 29.91 42.94 35.17L42.94 35.17Q42.94 41.86 36.46 56.16Q29.98 70.45 29.98 72.32L29.98 72.32Q29.98 72.90 30.34 72.68L30.34 72.68Q32.22 71.46 47.52 53.13Q62.82 34.81 68.79 30.49L68.79 30.49Q74.12 26.53 77.68 24.55Q81.25 22.57 84.99 22.57L84.99 22.57Q86 22.57 86.50 22.64L86.50 22.64Q88.45 22.78 88.45 24.66L88.45 24.66Q88.45 25.59 87.80 25.59L87.80 25.59Q87.73 25.59 86.79 25.27Q85.86 24.94 85.21 24.94L85.21 24.94Q75.13 24.94 58.06 43.16L58.06 43.16Q51.66 50 42.48 61.59Q33.30 73.18 31.64 74.12L31.64 74.12Q25.81 77.43 25.09 77.43L25.09 77.43Q24.87 77.43 24.87 76.71L24.87 76.71Q24.87 74.34 28.90 64.62L28.90 64.62Q30.56 60.87 33.73 53.38L33.73 53.38L37.04 43.66Q38.77 38.77 38.77 36.54L38.77 36.54Q38.77 31.57 35.89 28.98Q33.01 26.38 27.61 26.38Q22.21 26.38 16.02 30.20L16.02 30.20Q9.32 34.52 6.01 40.86Q2.70 47.19 2.70 51.58Q2.70 55.98 4.50 58.50L4.50 58.50Q7.45 62.60 12.34 62.60L12.34 62.60Q16.09 62.60 18.97 60.12Q21.85 57.63 21.85 53.82L21.85 53.82Q21.85 53.02 21.67 52.38Q21.49 51.73 22.21 51.73ZM85.42 71.46L85.42 71.46Q80.53 71.46 80.53 66.92L80.53 66.92Q80.53 64.33 82.83 59.83Q85.14 55.33 87.66 52.23L87.66 52.23Q83.19 54.39 77.36 60.04Q71.53 65.70 69.22 71.89L69.22 71.89Q68.86 72.46 68 72.46L68 72.46Q66.27 72.46 66.27 70.52L66.27 70.52Q66.99 66.56 69.51 61.45L69.51 61.45Q70.30 59.79 74.19 51.80L74.19 51.80Q68.58 55.47 64.65 59.68Q60.73 63.90 57.38 68.14Q54.03 72.39 53.60 72.39L53.60 72.39Q52.66 72.39 51.98 71.53Q51.30 70.66 51.30 69.80L51.30 69.80Q51.30 68.50 55.04 60.30L55.04 60.30L50.72 64.83Q49.14 66.42 48.74 66.42Q48.34 66.42 48.34 65.95Q48.34 65.48 48.92 64.90L48.92 64.90Q51.58 62.24 53.67 59.58Q55.76 56.91 60.58 50.07L60.58 50.07Q61.38 48.99 62.82 48.99Q64.26 48.99 64.26 50.36L64.26 50.36Q64.26 50.86 60.44 57.38Q56.62 63.90 56.19 65.55L56.19 65.55Q59.14 62.31 65.05 56.84L65.05 56.84Q73.90 48.63 76.71 48.63L76.71 48.63Q77.58 48.63 78.30 49.14Q79.02 49.64 79.02 50.25Q79.02 50.86 76.21 55.69L76.21 55.69Q73.47 60.66 73.18 61.59L73.18 61.59Q81.18 54.90 81.18 54.82L81.18 54.82Q87.94 49.57 90.90 49.57L90.90 49.57Q91.76 49.57 92.52 50.11Q93.27 50.65 93.27 51.37L93.27 51.37Q93.27 51.51 88.59 57.45Q83.91 63.39 83.34 67.21L83.34 67.21Q83.19 68.50 83.84 69.15Q84.49 69.80 86.18 69.80Q87.87 69.80 91.15 67.46Q94.42 65.12 97.81 61.16L97.81 61.16Q99.10 59.72 99.57 59.72Q100.04 59.72 100.04 60.08L100.04 60.08Q100.04 60.58 99.39 61.23L99.39 61.23Q95.86 65.48 91.80 68.47Q87.73 71.46 85.42 71.46Z">
	</path>
	<style>
		@media (prefers-color-scheme:light){:root{filter:invert(100%)}}
	</style>
</svg>
