<svg xmlns="http://www.w3.org/2000/svg" width="256" height="256" viewBox="0 0 100 100"><rect width="100" height="100" rx="50" fill="#d2d2da"></rect><path fill="#060606" d="M25.30 51.54L25.30 51.54Q26.19 51.54 26.19 53.65L26.19 53.65Q26.19 56.85 23.02 59.63Q19.86 62.42 15.76 62.42L15.76 62.42Q13.14 62.42 10.70 61.14L10.70 61.14Q5.52 58.32 5.52 51.34L5.52 51.34Q5.52 46.42 8.21 41.68L8.21 41.68Q11.92 35.22 18.86 31.44Q25.81 27.66 32.40 27.66L32.40 27.66Q37.20 27.66 40.27 29.78L40.27 29.78Q43.73 32.14 43.73 36.82L43.73 36.82Q43.73 42.77 37.97 55.47Q32.21 68.18 32.21 69.84L32.21 69.84Q32.21 70.35 32.53 70.16L32.53 70.16Q34.19 69.07 47.79 52.78Q61.39 36.50 66.70 32.66L66.70 32.66Q71.44 29.14 74.61 27.38Q77.78 25.62 81.10 25.62L81.10 25.62Q82 25.62 82.45 25.68L82.45 25.68Q84.18 25.81 84.18 27.47L84.18 27.47Q84.18 28.30 83.60 28.30L83.60 28.30Q83.54 28.30 82.70 28.02Q81.87 27.73 81.30 27.73L81.30 27.73Q72.34 27.73 57.17 43.92L57.17 43.92Q51.47 50 43.31 60.30Q35.15 70.61 33.68 71.44L33.68 71.44Q28.50 74.38 27.86 74.38L27.86 74.38Q27.66 74.38 27.66 73.74L27.66 73.74Q27.66 71.63 31.25 62.99L31.25 62.99Q32.72 59.66 35.54 53.01L35.54 53.01L38.48 44.37Q40.02 40.02 40.02 38.03L40.02 38.03Q40.02 33.62 37.46 31.31Q34.90 29.01 30.10 29.01Q25.30 29.01 19.79 32.40L19.79 32.40Q13.84 36.24 10.90 41.87Q7.95 47.50 7.95 51.41Q7.95 55.31 9.55 57.55L9.55 57.55Q12.18 61.20 16.53 61.20L16.53 61.20Q19.86 61.20 22.42 58.99Q24.98 56.78 24.98 53.39L24.98 53.39Q24.98 52.69 24.82 52.11Q24.66 51.54 25.30 51.54ZM81.49 69.07L81.49 69.07Q77.14 69.07 77.14 65.04L77.14 65.04Q77.14 62.74 79.18 58.74Q81.23 54.74 83.47 51.98L83.47 51.98Q79.50 53.90 74.32 58.93Q69.14 63.95 67.09 69.46L67.09 69.46Q66.77 69.97 66.00 69.97L66.00 69.97Q64.46 69.97 64.46 68.24L64.46 68.24Q65.10 64.72 67.34 60.18L67.34 60.18Q68.05 58.70 71.50 51.60L71.50 51.60Q66.51 54.86 63.02 58.61Q59.54 62.35 56.56 66.13Q53.58 69.90 53.20 69.90L53.20 69.90Q52.37 69.90 51.76 69.14Q51.15 68.37 51.15 67.60L51.15 67.60Q51.15 66.45 54.48 59.15L54.48 59.15L50.64 63.18Q49.23 64.59 48.88 64.59Q48.53 64.59 48.53 64.18Q48.53 63.76 49.04 63.25L49.04 63.25Q51.41 60.88 53.26 58.51Q55.12 56.14 59.41 50.06L59.41 50.06Q60.11 49.10 61.39 49.10Q62.67 49.10 62.67 50.32L62.67 50.32Q62.67 50.77 59.28 56.56Q55.89 62.35 55.50 63.82L55.50 63.82Q58.13 60.94 63.38 56.08L63.38 56.08Q71.25 48.78 73.74 48.78L73.74 48.78Q74.51 48.78 75.15 49.23Q75.79 49.68 75.79 50.22Q75.79 50.77 73.30 55.06L73.30 55.06Q70.86 59.47 70.61 60.30L70.61 60.30Q77.71 54.35 77.71 54.29L77.71 54.29Q83.73 49.62 86.35 49.62L86.35 49.62Q87.12 49.62 87.79 50.10Q88.46 50.58 88.46 51.22L88.46 51.22Q88.46 51.34 84.30 56.62Q80.14 61.90 79.63 65.30L79.63 65.30Q79.50 66.45 80.08 67.02Q80.66 67.60 82.16 67.60Q83.66 67.60 86.58 65.52Q89.49 63.44 92.50 59.92L92.50 59.92Q93.65 58.64 94.06 58.64Q94.48 58.64 94.48 58.96L94.48 58.96Q94.48 59.41 93.90 59.98L93.90 59.98Q90.77 63.76 87.15 66.42Q83.54 69.07 81.49 69.07Z"></path><style>
		@media (prefers-color-scheme:dark){:root{filter:invert(100%)}}
	</style></svg>